name analog
datacolumns 19
datarows 28
range 0.20350000000000001 0.217
endheader
time	ground_force_vx	ground_force_vy	ground_force_vz	ground_force_px	ground_force_py	ground_force_pz	l_ground_force_vx	l_ground_force_vy	l_ground_force_vz	l_ground_force_px	l_ground_force_py	l_ground_force_pz	ground_torque_x	ground_torque_y	ground_torque_z	l_ground_torque_x	l_ground_torque_y	l_ground_torque_z
0.20350000000000001	-0.0	-0.0	-0.0	-0.0	-0.0	-0.0	0.6634118556976318	-16.961584091186523	-629.3533935546875	-0.0	-0.0	-0.0	-0.0	-0.0	-0.0	159436.296875	-14058.171875	-523.5989379882812
0.20400000000000001	-0.0	-0.0	-0.0	-0.0	-0.0	-0.0	0.0383853614330291	-16.158905029296875	-627.5608520507812	-0.0	-0.0	-0.0	-0.0	-0.0	-0.0	159249.90625	-13769.4208984375	-790.8395385742188
0.20450000000000002	-0.0	-0.0	-0.0	-0.0	-0.0	-0.0	0.4178039729595184	-15.325870513916016	-626.6420288085938	-0.0	-0.0	-0.0	-0.0	-0.0	-0.0	159143.21875	-13715.470703125	-585.5008544921875
0.20500000000000002	-0.0	-0.0	-0.0	-0.0	-0.0	-0.0	0.3463186621665954	-14.72465705871582	-626.3612060546875	-0.0	-0.0	-0.0	-0.0	-0.0	-0.0	158776.609375	-13508.7353515625	-482.3941955566406
0.20550000000000002	-0.0	-0.0	-0.0	-0.0	-0.0	-0.0	0.5700141191482544	-14.005563735961914	-626.1080932617188	-0.0	-0.0	-0.0	-0.0	-0.0	-0.0	158614.453125	-13458.056640625	-415.5032958984375
0.20600000000000002	-0.0	-0.0	-0.0	-0.0	-0.0	-0.0	0.8916522264480591	-13.643438339233398	-624.6143798828125	-0.0	-0.0	-0.0	-0.0	-0.0	-0.0	158423.5625	-13453.578125	-227.5909881591797
0.20650000000000002	-0.0	-0.0	-0.0	-0.0	-0.0	-0.0	0.7610718011856079	-13.527216911315918	-624.7791748046875	-0.0	-0.0	-0.0	-0.0	-0.0	-0.0	158292.375	-13319.654296875	-341.6803283691406
0.20700000000000002	-0.0	-0.0	-0.0	-0.0	-0.0	-0.0	0.0935520753264427	-12.755253791809082	-623.4387817382812	-0.0	-0.0	-0.0	-0.0	-0.0	-0.0	158203.5	-13072.2431640625	-402.8284301757813
0.20750000000000002	-0.0	-0.0	-0.0	-0.0	-0.0	-0.0	-0.574135959148407	-12.006802558898926	-620.6658935546875	-0.0	-0.0	-0.0	-0.0	-0.0	-0.0	157830.078125	-12901.419921875	-390.7519226074219
0.20800000000000002	-0.0	-0.0	-0.0	-0.0	-0.0	-0.0	-0.3650623857975006	-11.356966972351074	-620.6270751953125	-0.0	-0.0	-0.0	-0.0	-0.0	-0.0	157615.75	-12807.5439453125	-240.4566192626953
0.2085	-0.0	-0.0	-0.0	-0.0	-0.0	-0.0	-0.4540822207927704	-10.598602294921877	-619.9705200195312	-0.0	-0.0	-0.0	-0.0	-0.0	-0.0	157196.4375	-12956.388671875	-285.7035522460937
0.209	-0.0	-0.0	-0.0	-0.0	-0.0	-0.0	-0.7042937278747559	-9.610957145690918	-617.8768310546875	-0.0	-0.0	-0.0	-0.0	-0.0	-0.0	157326.5	-12741.6015625	-344.9801940917969
0.2095	-0.0	-0.0	-0.0	-0.0	-0.0	-0.0	-1.2003660202026367	-9.019845008850098	-617.3218383789062	-0.0	-0.0	-0.0	-0.0	-0.0	-0.0	157406.6875	-12529.31640625	-475.9165649414063
0.21	-0.0	-0.0	-0.0	-0.0	-0.0	-0.0	-1.4608837366104126	-8.396224021911621	-616.2078247070312	-0.0	-0.0	-0.0	-0.0	-0.0	-0.0	157231.15625	-12524.1474609375	-608.4312133789062
0.2105	-0.0	-0.0	-0.0	-0.0	-0.0	-0.0	-0.9169262051582336	-7.689775943756103	-618.6279907226562	-0.0	-0.0	-0.0	-0.0	-0.0	-0.0	157519.578125	-12563.677734375	-566.2220458984375
0.211	-0.0	-0.0	-0.0	-0.0	-0.0	-0.0	-0.8337984681129456	-6.900977611541748	-618.8125610351562	-0.0	-0.0	-0.0	-0.0	-0.0	-0.0	157704.796875	-12593.6884765625	-294.9940490722656
0.2115	-0.0	-0.0	-0.0	-0.0	-0.0	-0.0	-0.4970552325248718	-6.282980918884277	-621.5618896484375	-0.0	-0.0	-0.0	-0.0	-0.0	-0.0	158262.046875	-12814.927734375	-286.81610107421875
0.212	-0.0	-0.0	-0.0	-0.0	-0.0	-0.0	-0.3423636853694916	-5.775752067565918	-620.4669799804688	-0.0	-0.0	-0.0	-0.0	-0.0	-0.0	158652.28125	-12596.9580078125	-341.80377197265625
0.2125	-0.0	-0.0	-0.0	-0.0	-0.0	-0.0	-0.7444502711296082	-5.2646894454956055	-621.1910400390625	-0.0	-0.0	-0.0	-0.0	-0.0	-0.0	159214.234375	-12525.3603515625	-373.7362976074219
0.213	-0.0	-0.0	-0.0	-0.0	-0.0	-0.0	-1.3782777786254885	-4.668064117431641	-622.188232421875	-0.0	-0.0	-0.0	-0.0	-0.0	-0.0	159446.171875	-12483.3779296875	-533.93798828125
0.2135	-0.0	-0.0	-0.0	-0.0	-0.0	-0.0	-1.6578238010406494	-4.728530406951904	-622.8602294921875	-0.0	-0.0	-0.0	-0.0	-0.0	-0.0	159866.859375	-12436.1201171875	-664.2452392578125
0.214	-0.0	-0.0	-0.0	-0.0	-0.0	-0.0	-1.65819251537323	-4.524767875671387	-621.624267578125	-0.0	-0.0	-0.0	-0.0	-0.0	-0.0	159829.1875	-12355.8046875	-648.0986938476562
0.2145	-0.0	-0.0	-0.0	-0.0	-0.0	-0.0	-1.1054123640060425	-4.674135208129883	-620.254150390625	-0.0	-0.0	-0.0	-0.0	-0.0	-0.0	160070.15625	-12540.099609375	-570.2348022460938
0.215	-0.0	-0.0	-0.0	-0.0	-0.0	-0.0	-0.7646906971931458	-5.428249359130859	-618.8572387695312	-0.0	-0.0	-0.0	-0.0	-0.0	-0.0	159709.59375	-12266.4677734375	-503.83734130859375
0.2155	-0.0	-0.0	-0.0	-0.0	-0.0	-0.0	-0.6689444184303284	-5.965311527252197	-617.1681518554688	-0.0	-0.0	-0.0	-0.0	-0.0	-0.0	159432.96875	-12503.6015625	-469.3656311035156
0.216	-0.0	-0.0	-0.0	-0.0	-0.0	-0.0	-0.0553875192999839	-6.278162002563477	-614.5357666015625	-0.0	-0.0	-0.0	-0.0	-0.0	-0.0	159079.515625	-12538.162109375	-457.7376098632813
0.2165	-0.0	-0.0	-0.0	-0.0	-0.0	-0.0	0.1368208229541778	-6.182518005371094	-611.4651489257812	-0.0	-0.0	-0.0	-0.0	-0.0	-0.0	159085.890625	-12339.2265625	-432.8571472167969
0.217	-0.0	-0.0	-0.0	-0.0	-0.0	-0.0	-0.0481812506914138	-6.783272743225098	-609.9075927734375	-0.0	-0.0	-0.0	-0.0	-0.0	-0.0	159051.953125	-12371.318359375	-478.9405517578125
